<svg width="409" height="82" viewBox="0 0 409 82" fill="none" xmlns="http://www.w3.org/2000/svg">
<path d="M24.688 74.344C21.296 74.344 18.224 74.024 15.472 73.384C12.72 72.808 10.32 71.944 8.272 70.792C6.224 69.64 4.528 68.264 3.184 66.664C1.904 65 1.008 63.176 0.496 61.192L12.016 56.104C12.464 57.192 13.232 58.312 14.32 59.464C15.472 60.552 16.976 61.448 18.832 62.152C20.752 62.856 23.056 63.208 25.744 63.208C28.304 63.208 30.288 62.856 31.696 62.152C33.168 61.384 33.904 60.296 33.904 58.888C33.904 57.864 33.488 57.064 32.656 56.488C31.888 55.848 30.704 55.304 29.104 54.856C27.504 54.344 25.52 53.864 23.152 53.416C20.72 52.904 18.256 52.328 15.76 51.688C13.264 50.984 10.928 50.056 8.752 48.904C6.576 47.688 4.816 46.12 3.472 44.2C2.192 42.216 1.552 39.72 1.552 36.712C1.552 33.576 2.384 30.856 4.048 28.552C5.712 26.184 8.176 24.328 11.44 22.984C14.768 21.64 18.8 20.968 23.536 20.968C27.76 20.968 31.472 21.512 34.672 22.6C37.872 23.688 40.528 25.256 42.64 27.304C44.816 29.288 46.32 31.688 47.152 34.504L34.768 38.92C34.448 37.512 33.776 36.296 32.752 35.272C31.792 34.248 30.544 33.48 29.008 32.968C27.536 32.392 25.776 32.104 23.728 32.104C21.232 32.104 19.28 32.488 17.872 33.256C16.528 34.024 15.856 35.048 15.856 36.328C15.856 37.352 16.304 38.216 17.2 38.92C18.16 39.56 19.504 40.104 21.232 40.552C22.96 41 25.008 41.48 27.376 41.992C29.872 42.504 32.336 43.112 34.768 43.816C37.264 44.456 39.504 45.352 41.488 46.504C43.536 47.592 45.136 49.064 46.288 50.92C47.504 52.712 48.112 55.048 48.112 57.928C48.112 61.32 47.216 64.264 45.424 66.76C43.632 69.192 40.976 71.08 37.456 72.424C34 73.704 29.744 74.344 24.688 74.344ZM56.827 73V22.312H72.283V73H56.827ZM64.603 15.208C61.659 15.208 59.387 14.6 57.787 13.384C56.251 12.104 55.483 10.312 55.483 8.008C55.483 5.576 56.251 3.752 57.787 2.536C59.387 1.256 61.659 0.615999 64.603 0.615999C67.611 0.615999 69.883 1.256 71.419 2.536C73.019 3.752 73.819 5.544 73.819 7.912C73.819 10.28 73.019 12.104 71.419 13.384C69.883 14.6 67.611 15.208 64.603 15.208ZM84.2958 73V3.784H99.4638V41.992C101.32 40.648 103.048 39.208 104.648 37.672C106.312 36.136 107.816 34.536 109.16 32.872C110.568 31.208 111.816 29.512 112.904 27.784C114.056 25.992 115.048 24.168 115.88 22.312H133.544C132.712 24.808 131.56 27.304 130.088 29.8C128.616 32.232 126.824 34.504 124.712 36.616C122.6 38.664 120.072 40.424 117.128 41.896C114.248 43.368 110.984 44.36 107.336 44.872V46.6C111.944 45.704 115.72 45.704 118.664 46.6C121.672 47.432 124.072 48.808 125.864 50.728C127.656 52.648 129.032 54.888 129.992 57.448C130.952 60.008 131.752 62.536 132.392 65.032L134.408 73H117.608L116.648 68.2C116.008 65.064 115.24 62.376 114.344 60.136C113.512 57.896 112.296 56.168 110.696 54.952C109.096 53.672 106.792 53.032 103.784 53.032H99.4638V73H84.2958ZM165.486 74.344C161.262 74.344 157.486 73.8 154.158 72.712C150.83 71.56 147.982 69.896 145.614 67.72C143.31 65.544 141.55 62.856 140.334 59.656C139.118 56.456 138.51 52.776 138.51 48.616C138.51 44.584 139.086 40.872 140.238 37.48C141.454 34.088 143.15 31.176 145.326 28.744C147.566 26.248 150.286 24.328 153.486 22.984C156.75 21.64 160.398 20.968 164.43 20.968C168.526 20.968 172.11 21.64 175.182 22.984C178.318 24.264 180.878 26.184 182.862 28.744C184.91 31.304 186.414 34.44 187.374 38.152C188.334 41.8 188.654 45.992 188.333 50.728L148.686 51.016V42.952L179.502 42.664L174.03 46.408C174.478 43.208 174.286 40.616 173.454 38.632C172.622 36.584 171.406 35.112 169.806 34.216C168.206 33.256 166.478 32.776 164.622 32.776C162.382 32.776 160.398 33.384 158.67 34.6C157.006 35.816 155.694 37.576 154.734 39.88C153.774 42.184 153.294 45 153.294 48.328C153.294 53.576 154.414 57.384 156.654 59.752C158.958 62.12 161.87 63.304 165.39 63.304C167.118 63.304 168.558 63.08 169.71 62.632C170.862 62.12 171.79 61.512 172.494 60.808C173.262 60.04 173.838 59.208 174.222 58.312C174.67 57.416 175.022 56.552 175.278 55.72L188.718 58.6C188.206 60.968 187.374 63.112 186.222 65.032C185.134 66.952 183.63 68.616 181.71 70.024C179.854 71.432 177.582 72.488 174.894 73.192C172.27 73.96 169.134 74.344 165.486 74.344ZM197.733 73V49.48V22.312H210.405L210.693 39.496H212.613C213.061 35.016 213.893 31.464 215.109 28.84C216.389 26.152 218.181 24.2 220.485 22.984C222.853 21.768 225.765 21.16 229.221 21.16C229.733 21.16 230.309 21.192 230.949 21.256C231.589 21.256 232.325 21.32 233.157 21.448L232.581 37.96C231.557 37.448 230.437 37.128 229.221 37C228.069 36.808 227.045 36.712 226.149 36.712C223.653 36.712 221.477 37.192 219.621 38.152C217.829 39.112 216.389 40.584 215.301 42.568C214.277 44.552 213.605 47.048 213.285 50.056V73H197.733ZM239.875 74.248C236.547 74.248 234.051 73.544 232.387 72.136C230.787 70.728 229.987 68.552 229.987 65.608C229.987 62.6 230.787 60.392 232.387 58.984C234.051 57.576 236.547 56.872 239.875 56.872C243.267 56.872 245.795 57.576 247.459 58.984C249.123 60.392 249.955 62.6 249.955 65.608C249.955 71.368 246.595 74.248 239.875 74.248ZM257.827 73V22.312H273.283V73H257.827ZM265.603 15.208C262.659 15.208 260.387 14.6 258.787 13.384C257.251 12.104 256.483 10.312 256.483 8.008C256.483 5.576 257.251 3.752 258.787 2.536C260.387 1.256 262.659 0.615999 265.603 0.615999C268.611 0.615999 270.883 1.256 272.419 2.536C274.019 3.752 274.819 5.544 274.819 7.912C274.819 10.28 274.019 12.104 272.419 13.384C270.883 14.6 268.611 15.208 265.603 15.208ZM285.296 73V40.264V22.312H297.488L297.68 37.192H299.6C300.496 33.544 301.68 30.536 303.152 28.168C304.624 25.736 306.416 23.944 308.528 22.792C310.64 21.576 313.104 20.968 315.92 20.968C318.864 20.968 321.296 21.608 323.216 22.888C325.2 24.104 326.768 25.928 327.92 28.36C329.072 30.728 329.84 33.672 330.224 37.192H331.856C332.88 33.416 334.224 30.344 335.888 27.976C337.552 25.544 339.536 23.784 341.84 22.696C344.144 21.544 346.64 20.968 349.328 20.968C352.208 20.968 354.704 21.544 356.816 22.696C358.992 23.784 360.784 25.448 362.192 27.688C363.664 29.864 364.752 32.616 365.456 35.944C366.16 39.208 366.512 43.016 366.512 47.368V73H350.96V49.288C350.96 45.896 350.672 43.08 350.096 40.84C349.584 38.6 348.752 36.936 347.6 35.848C346.448 34.696 344.976 34.12 343.184 34.12C341.136 34.12 339.376 34.792 337.904 36.136C336.496 37.48 335.408 39.368 334.64 41.8C333.872 44.168 333.488 46.856 333.488 49.864V73H318.32V49.576C318.32 46.056 318 43.176 317.36 40.936C316.784 38.696 315.888 37 314.672 35.848C313.52 34.696 312.048 34.12 310.256 34.12C308.208 34.12 306.48 34.792 305.072 36.136C303.664 37.48 302.576 39.368 301.808 41.8C301.104 44.168 300.752 46.856 300.752 49.864V73H285.296ZM370.437 81.544L393.957 4.168H408.165L384.645 81.544H370.437Z" fill="#F0B100"/>
</svg>
