<!--?xml version="1.0" standalone="no"?-->
              <svg id="sw-js-blob-svg" viewBox="0 0 100 100" xmlns="http://www.w3.org/2000/svg" version="1.1">
                    <defs> 
                        <linearGradient id="sw-gradient" x1="0" x2="1" y1="1" y2="0">
                            <stop id="stop1" stop-color="rgba(255, 255, 255, 1)" offset="0%"></stop>
                            <stop id="stop2" stop-color="rgba(255, 255, 255, 1)" offset="100%"></stop>
                        </linearGradient>
                    </defs>
                <path fill="url(#sw-gradient)" d="M19.1,-28.2C26,-25.4,33.5,-22.1,37.8,-16.2C42,-10.4,43,-2,40.7,5C38.4,12.1,32.9,17.9,27.8,24.3C22.6,30.8,17.9,37.8,11.4,40.5C4.9,43.2,-3.4,41.6,-10.3,38.1C-17.1,34.7,-22.4,29.4,-27,23.6C-31.7,17.9,-35.6,11.8,-37.6,4.8C-39.6,-2.3,-39.8,-10.3,-36.6,-16.5C-33.4,-22.7,-26.8,-27.1,-20.2,-30C-13.5,-32.9,-6.8,-34.2,-0.3,-33.7C6.1,-33.3,12.3,-31,19.1,-28.2Z" width="100%" height="100%" transform="translate(50 50)" style="transition: 0.3s;" stroke-width="0" stroke="url(#sw-gradient)"></path>
              </svg>